<svg width="1280" height="640" viewBox="0 0 1280 640" fill="none" xmlns="http://www.w3.org/2000/svg">
<rect width="1280" height="640" fill="#E9E9E9"/>
<path d="M487.2 274.2C482.267 274.2 477.9 273.067 474.1 270.8C470.367 268.467 467.467 265.233 465.4 261.1C463.4 256.9 462.4 252 462.4 246.4C462.4 240.8 463.4 235.933 465.4 231.8C467.467 227.667 470.367 224.433 474.1 222.1C477.9 219.767 482.267 218.6 487.2 218.6C491.267 218.6 494.9 219.367 498.1 220.9C501.3 222.367 503.933 224.533 506 227.4C508.067 230.267 509.433 233.7 510.1 237.7L499.8 238.4C499 235 497.5 232.4 495.3 230.6C493.1 228.8 490.433 227.9 487.3 227.9C482.833 227.9 479.3 229.567 476.7 232.9C474.167 236.167 472.9 240.667 472.9 246.4C472.9 252.133 474.167 256.667 476.7 260C479.3 263.267 482.833 264.9 487.3 264.9C490.5 264.9 493.233 263.967 495.5 262.1C497.833 260.167 499.367 257.333 500.1 253.6L510.4 254.2C509.733 258.267 508.333 261.8 506.2 264.8C504.067 267.733 501.367 270.033 498.1 271.7C494.9 273.367 491.267 274.2 487.2 274.2ZM540.961 274.2C536.028 274.2 531.694 273.067 527.961 270.8C524.294 268.533 521.428 265.3 519.361 261.1C517.361 256.9 516.361 252 516.361 246.4C516.361 240.733 517.361 235.833 519.361 231.7C521.428 227.5 524.294 224.267 527.961 222C531.694 219.733 536.028 218.6 540.961 218.6C545.894 218.6 550.194 219.733 553.861 222C557.594 224.267 560.461 227.5 562.461 231.7C564.528 235.833 565.561 240.733 565.561 246.4C565.561 252 564.528 256.9 562.461 261.1C560.461 265.3 557.594 268.533 553.861 270.8C550.194 273.067 545.894 274.2 540.961 274.2ZM540.961 264.9C545.428 264.9 548.861 263.267 551.261 260C553.728 256.733 554.961 252.2 554.961 246.4C554.961 240.6 553.728 236.067 551.261 232.8C548.861 229.533 545.428 227.9 540.961 227.9C536.494 227.9 533.028 229.533 530.561 232.8C528.161 236.067 526.961 240.6 526.961 246.4C526.961 252.2 528.161 256.733 530.561 260C533.028 263.267 536.494 264.9 540.961 264.9ZM569.522 273V219.8H578.322L578.722 231.8L577.622 231.5C578.289 227.433 579.589 224.267 581.522 222C583.522 219.733 586.022 218.6 589.022 218.6C592.222 218.6 594.622 219.733 596.222 222C597.889 224.267 598.922 227.633 599.322 232.1H598.222C598.822 227.833 600.189 224.533 602.322 222.2C604.455 219.8 607.122 218.6 610.322 218.6C614.522 218.6 617.555 220.067 619.422 223C621.355 225.867 622.322 230.567 622.322 237.1V273H612.522V238.8C612.522 234.533 612.055 231.567 611.122 229.9C610.255 228.233 608.889 227.4 607.022 227.4C605.822 227.4 604.722 227.8 603.722 228.6C602.789 229.4 602.055 230.667 601.522 232.4C600.989 234.067 600.722 236.267 600.722 239V273H591.122V238.8C591.122 234.667 590.689 231.733 589.822 230C589.022 228.267 587.655 227.4 585.722 227.4C584.455 227.4 583.355 227.8 582.422 228.6C581.489 229.4 580.722 230.667 580.122 232.4C579.589 234.067 579.322 236.267 579.322 239V273H569.522ZM628.083 288V219.8H637.683L637.883 231.9L636.683 231.3C638.016 227.167 640.183 224.033 643.183 221.9C646.249 219.7 649.849 218.6 653.983 218.6C659.116 218.6 663.316 219.9 666.583 222.5C669.849 225.033 672.283 228.4 673.883 232.6C675.483 236.8 676.283 241.4 676.283 246.4C676.283 251.4 675.483 256 673.883 260.2C672.283 264.4 669.849 267.8 666.583 270.4C663.316 272.933 659.116 274.2 653.983 274.2C651.249 274.2 648.716 273.767 646.383 272.9C644.049 271.967 642.049 270.667 640.383 269C638.783 267.267 637.616 265.2 636.883 262.8L638.183 261.4V288H628.083ZM652.083 264.9C656.349 264.9 659.683 263.3 662.083 260.1C664.483 256.9 665.683 252.333 665.683 246.4C665.683 240.467 664.483 235.9 662.083 232.7C659.683 229.5 656.349 227.9 652.083 227.9C649.283 227.9 646.849 228.6 644.783 230C642.716 231.333 641.083 233.367 639.883 236.1C638.749 238.833 638.183 242.267 638.183 246.4C638.183 250.533 638.749 253.967 639.883 256.7C641.016 259.433 642.616 261.5 644.683 262.9C646.816 264.233 649.283 264.9 652.083 264.9ZM713.444 273C708.044 273 704.01 271.767 701.344 269.3C698.744 266.767 697.444 262.9 697.444 257.7V207.3H707.544V257.2C707.544 259.667 708.11 261.5 709.244 262.7C710.444 263.9 712.21 264.5 714.544 264.5H728.244V273H713.444ZM680.644 228.3V219.8H728.244V228.3H680.644ZM759.205 273V219.8H769.405V273H759.205ZM738.405 273V264.5H787.205V273H738.405ZM739.405 228.3V219.8H768.505V228.3H739.405ZM758.605 212.1V201.6H769.005V212.1H758.605ZM789.366 273V219.8H798.166L798.566 231.8L797.466 231.5C798.132 227.433 799.432 224.267 801.366 222C803.366 219.733 805.866 218.6 808.866 218.6C812.066 218.6 814.466 219.733 816.066 222C817.732 224.267 818.766 227.633 819.166 232.1H818.066C818.666 227.833 820.032 224.533 822.166 222.2C824.299 219.8 826.966 218.6 830.166 218.6C834.366 218.6 837.399 220.067 839.266 223C841.199 225.867 842.166 230.567 842.166 237.1V273H832.366V238.8C832.366 234.533 831.899 231.567 830.966 229.9C830.099 228.233 828.732 227.4 826.866 227.4C825.666 227.4 824.566 227.8 823.566 228.6C822.632 229.4 821.899 230.667 821.366 232.4C820.832 234.067 820.566 236.267 820.566 239V273H810.966V238.8C810.966 234.667 810.532 231.733 809.666 230C808.866 228.267 807.499 227.4 805.566 227.4C804.299 227.4 803.199 227.8 802.266 228.6C801.332 229.4 800.566 230.667 799.966 232.4C799.432 234.067 799.166 236.267 799.166 239V273H789.366ZM871.427 274.2C866.427 274.2 862.06 273.067 858.327 270.8C854.66 268.533 851.793 265.3 849.727 261.1C847.727 256.9 846.727 252 846.727 246.4C846.727 240.8 847.727 235.933 849.727 231.8C851.793 227.667 854.627 224.433 858.227 222.1C861.893 219.767 866.193 218.6 871.127 218.6C875.86 218.6 880.027 219.733 883.627 222C887.227 224.2 890.027 227.4 892.027 231.6C894.093 235.733 895.127 240.733 895.127 246.6V249.4H857.327C857.66 254.467 859.06 258.333 861.527 261C864.06 263.6 867.393 264.9 871.527 264.9C874.66 264.9 877.26 264.167 879.327 262.7C881.393 261.167 882.827 259.2 883.627 256.8L894.227 257.5C892.693 262.567 889.927 266.633 885.927 269.7C881.993 272.7 877.16 274.2 871.427 274.2ZM857.327 241.3H884.227C883.827 236.767 882.427 233.4 880.027 231.2C877.693 229 874.727 227.9 871.127 227.9C867.393 227.9 864.327 229.033 861.927 231.3C859.527 233.567 857.993 236.9 857.327 241.3ZM918.888 273V259.8H932.488V273H918.888ZM988.248 273C982.848 273 978.815 271.767 976.148 269.3C973.548 266.767 972.248 262.9 972.248 257.7V207.3H982.348V257.2C982.348 259.667 982.915 261.5 984.048 262.7C985.248 263.9 987.015 264.5 989.348 264.5H1003.05V273H988.248ZM955.448 228.3V219.8H1003.05V228.3H955.448ZM1036.41 274.2C1031.68 274.2 1027.61 273.4 1024.21 271.8C1020.81 270.2 1018.18 268.067 1016.31 265.4C1014.44 262.667 1013.38 259.633 1013.11 256.3L1023.41 255.7C1023.94 258.567 1025.28 260.867 1027.41 262.6C1029.54 264.267 1032.58 265.1 1036.51 265.1C1040.18 265.1 1042.98 264.6 1044.91 263.6C1046.84 262.6 1047.81 261.033 1047.81 258.9C1047.81 257.567 1047.48 256.467 1046.81 255.6C1046.14 254.667 1044.88 253.9 1043.01 253.3C1041.21 252.633 1038.54 251.967 1035.01 251.3C1029.74 250.3 1025.61 249.133 1022.61 247.8C1019.68 246.4 1017.58 244.667 1016.31 242.6C1015.04 240.467 1014.41 237.9 1014.41 234.9C1014.41 231.833 1015.18 229.067 1016.71 226.6C1018.31 224.133 1020.64 222.2 1023.71 220.8C1026.78 219.333 1030.58 218.6 1035.11 218.6C1039.84 218.6 1043.74 219.433 1046.81 221.1C1049.88 222.7 1052.28 224.8 1054.01 227.4C1055.74 230 1056.84 232.833 1057.31 235.9L1047.01 236.5C1046.61 234.767 1045.91 233.267 1044.91 232C1043.91 230.667 1042.58 229.633 1040.91 228.9C1039.24 228.1 1037.31 227.7 1035.11 227.7C1031.58 227.7 1028.98 228.4 1027.31 229.8C1025.64 231.2 1024.81 232.9 1024.81 234.9C1024.81 236.5 1025.21 237.8 1026.01 238.8C1026.81 239.733 1028.14 240.533 1030.01 241.2C1031.88 241.8 1034.41 242.4 1037.61 243C1043.01 243.867 1047.18 245 1050.11 246.4C1053.04 247.733 1055.11 249.4 1056.31 251.4C1057.51 253.4 1058.11 255.867 1058.11 258.8C1058.11 262 1057.18 264.767 1055.31 267.1C1053.51 269.367 1050.98 271.133 1047.71 272.4C1044.51 273.6 1040.74 274.2 1036.41 274.2Z" fill="black"/>
<path d="M459.952 348V344.6L472.396 327.226H460.428V323.86H476.748V327.26L464.236 344.634H477.122V348H459.952ZM480.476 348V329.912H484.08V348H480.476ZM480.408 327.294V323.69H484.148V327.294H480.408ZM496.119 353.508C494.691 353.508 493.433 353.293 492.345 352.862C491.257 352.431 490.362 351.819 489.659 351.026C488.956 350.255 488.48 349.349 488.231 348.306L491.971 348.068C492.22 348.816 492.651 349.405 493.263 349.836C493.898 350.289 494.85 350.516 496.119 350.516C497.615 350.516 498.76 350.199 499.553 349.564C500.369 348.929 500.777 347.966 500.777 346.674V344.056C500.346 344.985 499.655 345.722 498.703 346.266C497.751 346.81 496.686 347.082 495.507 347.082C493.988 347.082 492.64 346.708 491.461 345.96C490.282 345.212 489.364 344.181 488.707 342.866C488.05 341.551 487.721 340.033 487.721 338.31C487.721 336.565 488.038 335.035 488.673 333.72C489.33 332.405 490.237 331.374 491.393 330.626C492.572 329.878 493.898 329.504 495.371 329.504C496.663 329.504 497.796 329.799 498.771 330.388C499.768 330.977 500.482 331.771 500.913 332.768V329.912H504.381V346.572C504.381 348.068 504.041 349.326 503.361 350.346C502.704 351.389 501.752 352.171 500.505 352.692C499.281 353.236 497.819 353.508 496.119 353.508ZM496.085 344.022C497.49 344.022 498.612 343.512 499.451 342.492C500.312 341.472 500.754 340.067 500.777 338.276C500.8 337.097 500.618 336.089 500.233 335.25C499.848 334.389 499.292 333.731 498.567 333.278C497.864 332.802 497.037 332.564 496.085 332.564C494.612 332.564 493.467 333.085 492.651 334.128C491.858 335.148 491.461 336.531 491.461 338.276C491.461 340.044 491.869 341.449 492.685 342.492C493.524 343.512 494.657 344.022 496.085 344.022ZM508.373 339.67V336.508H519.763V339.67H508.373ZM530.676 348.408C528.976 348.408 527.537 348.147 526.358 347.626C525.202 347.105 524.307 346.391 523.672 345.484C523.038 344.555 522.675 343.489 522.584 342.288L526.29 342.118C526.472 343.115 526.902 343.909 527.582 344.498C528.262 345.087 529.294 345.382 530.676 345.382C531.81 345.382 532.705 345.201 533.362 344.838C534.02 344.475 534.348 343.897 534.348 343.104C534.348 342.673 534.235 342.311 534.008 342.016C533.804 341.699 533.396 341.438 532.784 341.234C532.172 341.007 531.266 340.792 530.064 340.588C528.274 340.248 526.868 339.851 525.848 339.398C524.828 338.945 524.103 338.367 523.672 337.664C523.242 336.961 523.026 336.111 523.026 335.114C523.026 333.459 523.638 332.111 524.862 331.068C526.109 330.025 527.9 329.504 530.234 329.504C531.798 329.504 533.113 329.776 534.178 330.32C535.244 330.841 536.071 331.555 536.66 332.462C537.272 333.346 537.658 334.343 537.816 335.454L534.11 335.658C533.997 335.023 533.77 334.479 533.43 334.026C533.113 333.55 532.682 333.187 532.138 332.938C531.594 332.666 530.948 332.53 530.2 332.53C529.044 332.53 528.183 332.757 527.616 333.21C527.05 333.663 526.766 334.253 526.766 334.978C526.766 335.522 526.891 335.964 527.14 336.304C527.412 336.644 527.843 336.927 528.432 337.154C529.022 337.358 529.804 337.539 530.778 337.698C532.66 338.015 534.133 338.412 535.198 338.888C536.264 339.341 537.012 339.908 537.442 340.588C537.873 341.268 538.088 342.095 538.088 343.07C538.088 344.203 537.771 345.167 537.136 345.96C536.502 346.753 535.629 347.365 534.518 347.796C533.408 348.204 532.127 348.408 530.676 348.408ZM548.007 348C546.285 348 545.015 347.603 544.199 346.81C543.383 346.017 542.975 344.781 542.975 343.104V325.662H546.579V342.832C546.579 343.671 546.761 344.249 547.123 344.566C547.486 344.883 548.041 345.042 548.789 345.042H551.373V348H548.007ZM540.221 332.87V329.912H551.373V332.87H540.221ZM555.672 353.1V350.142H557.882C558.494 350.142 558.947 350.051 559.242 349.87C559.536 349.689 559.763 349.383 559.922 348.952L560.5 347.456H559.378L552.85 329.912H556.658L561.622 344.124L566.348 329.912H570.19L562.982 350.108C562.619 351.151 562.075 351.91 561.35 352.386C560.647 352.862 559.661 353.1 558.392 353.1H555.672ZM577.057 348C575.878 348 574.926 347.694 574.201 347.082C573.475 346.47 573.113 345.495 573.113 344.158V323.86H576.717V343.818C576.717 344.226 576.819 344.532 577.023 344.736C577.249 344.94 577.567 345.042 577.975 345.042H579.403V348H577.057ZM589.922 348.408C588.154 348.408 586.624 348.023 585.332 347.252C584.062 346.481 583.076 345.382 582.374 343.954C581.694 342.526 581.354 340.86 581.354 338.956C581.354 337.052 581.694 335.397 582.374 333.992C583.076 332.564 584.062 331.465 585.332 330.694C586.601 329.901 588.097 329.504 589.82 329.504C591.452 329.504 592.891 329.889 594.138 330.66C595.384 331.408 596.348 332.496 597.028 333.924C597.73 335.352 598.082 337.075 598.082 339.092V340.01H585.094C585.184 341.778 585.649 343.104 586.488 343.988C587.349 344.872 588.505 345.314 589.956 345.314C591.021 345.314 591.905 345.065 592.608 344.566C593.31 344.067 593.798 343.399 594.07 342.56L597.81 342.798C597.334 344.475 596.393 345.835 594.988 346.878C593.605 347.898 591.916 348.408 589.922 348.408ZM585.094 337.29H594.274C594.16 335.681 593.696 334.491 592.88 333.72C592.086 332.949 591.066 332.564 589.82 332.564C588.528 332.564 587.462 332.972 586.624 333.788C585.808 334.581 585.298 335.749 585.094 337.29ZM617.779 348.408C616.057 348.408 614.549 348.023 613.257 347.252C611.965 346.481 610.968 345.382 610.265 343.954C609.563 342.526 609.211 340.86 609.211 338.956C609.211 337.052 609.563 335.397 610.265 333.992C610.968 332.564 611.965 331.465 613.257 330.694C614.549 329.901 616.057 329.504 617.779 329.504C619.253 329.504 620.556 329.765 621.689 330.286C622.845 330.785 623.775 331.521 624.477 332.496C625.203 333.471 625.667 334.661 625.871 336.066L622.097 336.27C621.916 335.091 621.44 334.196 620.669 333.584C619.899 332.949 618.935 332.632 617.779 332.632C616.261 332.632 615.071 333.199 614.209 334.332C613.371 335.443 612.951 336.984 612.951 338.956C612.951 340.928 613.371 342.481 614.209 343.614C615.071 344.725 616.261 345.28 617.779 345.28C618.935 345.28 619.899 344.963 620.669 344.328C621.44 343.671 621.916 342.685 622.097 341.37L625.871 341.574C625.667 342.957 625.203 344.158 624.477 345.178C623.775 346.198 622.845 346.991 621.689 347.558C620.556 348.125 619.253 348.408 617.779 348.408ZM636.605 348.408C634.883 348.408 633.375 348.023 632.083 347.252C630.791 346.481 629.794 345.382 629.091 343.954C628.389 342.526 628.037 340.86 628.037 338.956C628.037 337.029 628.389 335.363 629.091 333.958C629.794 332.553 630.791 331.465 632.083 330.694C633.375 329.901 634.883 329.504 636.605 329.504C638.328 329.504 639.835 329.901 641.127 330.694C642.419 331.465 643.417 332.553 644.119 333.958C644.822 335.363 645.173 337.029 645.173 338.956C645.173 340.86 644.822 342.526 644.119 343.954C643.417 345.382 642.419 346.481 641.127 347.252C639.835 348.023 638.328 348.408 636.605 348.408ZM636.605 345.28C638.147 345.28 639.337 344.725 640.175 343.614C641.014 342.481 641.433 340.928 641.433 338.956C641.433 336.984 641.014 335.443 640.175 334.332C639.337 333.199 638.147 332.632 636.605 332.632C635.087 332.632 633.897 333.199 633.035 334.332C632.197 335.443 631.777 336.984 631.777 338.956C631.777 340.928 632.197 342.481 633.035 343.614C633.897 344.725 635.087 345.28 636.605 345.28ZM648.816 348V329.912H652.114L652.216 334.4L651.808 334.264C652.012 333.267 652.363 332.417 652.862 331.714C653.383 331.011 654.018 330.467 654.766 330.082C655.514 329.697 656.33 329.504 657.214 329.504C658.755 329.504 660.013 329.946 660.988 330.83C661.962 331.691 662.574 332.881 662.824 334.4H662.246C662.45 333.335 662.79 332.451 663.266 331.748C663.764 331.023 664.399 330.467 665.17 330.082C665.94 329.697 666.813 329.504 667.788 329.504C669.057 329.504 670.134 329.776 671.018 330.32C671.924 330.841 672.604 331.612 673.058 332.632C673.534 333.652 673.772 334.899 673.772 336.372V348H670.168V337.256C670.168 335.692 669.884 334.513 669.318 333.72C668.751 332.927 667.89 332.53 666.734 332.53C665.986 332.53 665.328 332.723 664.762 333.108C664.195 333.493 663.753 334.049 663.436 334.774C663.141 335.499 662.994 336.372 662.994 337.392V348H659.56V337.392C659.56 335.851 659.299 334.661 658.778 333.822C658.279 332.961 657.418 332.53 656.194 332.53C655.423 332.53 654.754 332.723 654.188 333.108C653.644 333.493 653.213 334.06 652.896 334.808C652.578 335.533 652.42 336.395 652.42 337.392V348H648.816ZM678.267 353.1V329.912H681.667L681.769 333.788L681.361 333.584C681.814 332.247 682.562 331.238 683.605 330.558C684.647 329.855 685.849 329.504 687.209 329.504C688.977 329.504 690.427 329.946 691.561 330.83C692.717 331.691 693.567 332.836 694.111 334.264C694.677 335.692 694.961 337.256 694.961 338.956C694.961 340.656 694.677 342.22 694.111 343.648C693.567 345.076 692.717 346.232 691.561 347.116C690.427 347.977 688.977 348.408 687.209 348.408C686.302 348.408 685.452 348.249 684.659 347.932C683.865 347.615 683.185 347.173 682.619 346.606C682.075 346.017 681.689 345.325 681.463 344.532L681.871 344.124V353.1H678.267ZM686.563 345.28C688.013 345.28 689.147 344.725 689.963 343.614C690.801 342.503 691.221 340.951 691.221 338.956C691.221 336.961 690.801 335.409 689.963 334.298C689.147 333.187 688.013 332.632 686.563 332.632C685.611 332.632 684.783 332.87 684.081 333.346C683.378 333.799 682.834 334.502 682.449 335.454C682.063 336.406 681.871 337.573 681.871 338.956C681.871 340.339 682.052 341.506 682.415 342.458C682.8 343.41 683.344 344.124 684.047 344.6C684.772 345.053 685.611 345.28 686.563 345.28ZM698.62 348V329.912H702.224V348H698.62ZM698.552 327.294V323.69H702.292V327.294H698.552ZM710.998 348C709.819 348 708.867 347.694 708.142 347.082C707.417 346.47 707.054 345.495 707.054 344.158V323.86H710.658V343.818C710.658 344.226 710.76 344.532 710.964 344.736C711.191 344.94 711.508 345.042 711.916 345.042H713.344V348H710.998ZM723.863 348.408C722.095 348.408 720.565 348.023 719.273 347.252C718.004 346.481 717.018 345.382 716.315 343.954C715.635 342.526 715.295 340.86 715.295 338.956C715.295 337.052 715.635 335.397 716.315 333.992C717.018 332.564 718.004 331.465 719.273 330.694C720.543 329.901 722.039 329.504 723.761 329.504C725.393 329.504 726.833 329.889 728.079 330.66C729.326 331.408 730.289 332.496 730.969 333.924C731.672 335.352 732.023 337.075 732.023 339.092V340.01H719.035C719.126 341.778 719.591 343.104 720.429 343.988C721.291 344.872 722.447 345.314 723.897 345.314C724.963 345.314 725.847 345.065 726.549 344.566C727.252 344.067 727.739 343.399 728.011 342.56L731.751 342.798C731.275 344.475 730.335 345.835 728.929 346.878C727.547 347.898 725.858 348.408 723.863 348.408ZM719.035 337.29H728.215C728.102 335.681 727.637 334.491 726.821 333.72C726.028 332.949 725.008 332.564 723.761 332.564C722.469 332.564 721.404 332.972 720.565 333.788C719.749 334.581 719.239 335.749 719.035 337.29ZM734.885 339.67V336.508H746.275V339.67H734.885ZM757.154 348C755.431 348 754.162 347.603 753.346 346.81C752.53 346.017 752.122 344.781 752.122 343.104V325.662H755.726V342.832C755.726 343.671 755.907 344.249 756.27 344.566C756.633 344.883 757.188 345.042 757.936 345.042H760.52V348H757.154ZM749.368 332.87V329.912H760.52V332.87H749.368ZM763.964 348V329.912H767.568V348H763.964ZM763.896 327.294V323.69H767.636V327.294H763.896ZM772.962 348V329.912H776.26L776.362 334.4L775.954 334.264C776.158 333.267 776.509 332.417 777.008 331.714C777.529 331.011 778.164 330.467 778.912 330.082C779.66 329.697 780.476 329.504 781.36 329.504C782.901 329.504 784.159 329.946 785.134 330.83C786.109 331.691 786.721 332.881 786.97 334.4H786.392C786.596 333.335 786.936 332.451 787.412 331.748C787.911 331.023 788.545 330.467 789.316 330.082C790.087 329.697 790.959 329.504 791.934 329.504C793.203 329.504 794.28 329.776 795.164 330.32C796.071 330.841 796.751 331.612 797.204 332.632C797.68 333.652 797.918 334.899 797.918 336.372V348H794.314V337.256C794.314 335.692 794.031 334.513 793.464 333.72C792.897 332.927 792.036 332.53 790.88 332.53C790.132 332.53 789.475 332.723 788.908 333.108C788.341 333.493 787.899 334.049 787.582 334.774C787.287 335.499 787.14 336.372 787.14 337.392V348H783.706V337.392C783.706 335.851 783.445 334.661 782.924 333.822C782.425 332.961 781.564 332.53 780.34 332.53C779.569 332.53 778.901 332.723 778.334 333.108C777.79 333.493 777.359 334.06 777.042 334.808C776.725 335.533 776.566 336.395 776.566 337.392V348H772.962ZM810.092 348.408C808.324 348.408 806.794 348.023 805.502 347.252C804.232 346.481 803.246 345.382 802.544 343.954C801.864 342.526 801.524 340.86 801.524 338.956C801.524 337.052 801.864 335.397 802.544 333.992C803.246 332.564 804.232 331.465 805.502 330.694C806.771 329.901 808.267 329.504 809.99 329.504C811.622 329.504 813.061 329.889 814.308 330.66C815.554 331.408 816.518 332.496 817.198 333.924C817.9 335.352 818.252 337.075 818.252 339.092V340.01H805.264C805.354 341.778 805.819 343.104 806.658 343.988C807.519 344.872 808.675 345.314 810.126 345.314C811.191 345.314 812.075 345.065 812.778 344.566C813.48 344.067 813.968 343.399 814.24 342.56L817.98 342.798C817.504 344.475 816.563 345.835 815.158 346.878C813.775 347.898 812.086 348.408 810.092 348.408ZM805.264 337.29H814.444C814.33 335.681 813.866 334.491 813.05 333.72C812.256 332.949 811.236 332.564 809.99 332.564C808.698 332.564 807.632 332.972 806.794 333.788C805.978 334.581 805.468 335.749 805.264 337.29ZM837.949 348.408C836.181 348.408 834.651 348.023 833.359 347.252C832.09 346.481 831.104 345.382 830.401 343.954C829.721 342.526 829.381 340.86 829.381 338.956C829.381 337.052 829.721 335.397 830.401 333.992C831.104 332.564 832.09 331.465 833.359 330.694C834.628 329.901 836.124 329.504 837.847 329.504C839.479 329.504 840.918 329.889 842.165 330.66C843.412 331.408 844.375 332.496 845.055 333.924C845.758 335.352 846.109 337.075 846.109 339.092V340.01H833.121C833.212 341.778 833.676 343.104 834.515 343.988C835.376 344.872 836.532 345.314 837.983 345.314C839.048 345.314 839.932 345.065 840.635 344.566C841.338 344.067 841.825 343.399 842.097 342.56L845.837 342.798C845.361 344.475 844.42 345.835 843.015 346.878C841.632 347.898 839.944 348.408 837.949 348.408ZM833.121 337.29H842.301C842.188 335.681 841.723 334.491 840.907 333.72C840.114 332.949 839.094 332.564 837.847 332.564C836.555 332.564 835.49 332.972 834.651 333.788C833.835 334.581 833.325 335.749 833.121 337.29ZM847.282 348L853.844 338.752L847.554 329.912H851.566L856.02 336.406L860.338 329.912H864.452L858.23 338.82L864.724 348H860.712L856.054 341.098L851.362 348H847.282ZM867.458 353.1V329.912H870.858L870.96 333.788L870.552 333.584C871.006 332.247 871.754 331.238 872.796 330.558C873.839 329.855 875.04 329.504 876.4 329.504C878.168 329.504 879.619 329.946 880.752 330.83C881.908 331.691 882.758 332.836 883.302 334.264C883.869 335.692 884.152 337.256 884.152 338.956C884.152 340.656 883.869 342.22 883.302 343.648C882.758 345.076 881.908 346.232 880.752 347.116C879.619 347.977 878.168 348.408 876.4 348.408C875.494 348.408 874.644 348.249 873.85 347.932C873.057 347.615 872.377 347.173 871.81 346.606C871.266 346.017 870.881 345.325 870.654 344.532L871.062 344.124V353.1H867.458ZM875.754 345.28C877.205 345.28 878.338 344.725 879.154 343.614C879.993 342.503 880.412 340.951 880.412 338.956C880.412 336.961 879.993 335.409 879.154 334.298C878.338 333.187 877.205 332.632 875.754 332.632C874.802 332.632 873.975 332.87 873.272 333.346C872.57 333.799 872.026 334.502 871.64 335.454C871.255 336.406 871.062 337.573 871.062 338.956C871.062 340.339 871.244 341.506 871.606 342.458C871.992 343.41 872.536 344.124 873.238 344.6C873.964 345.053 874.802 345.28 875.754 345.28ZM887.812 348V329.912H891.11L891.246 334.706L890.94 334.604C891.189 332.972 891.688 331.782 892.436 331.034C893.206 330.286 894.238 329.912 895.53 329.912H897.264V333.142H895.53C894.623 333.142 893.864 333.289 893.252 333.584C892.64 333.879 892.175 334.332 891.858 334.944C891.563 335.556 891.416 336.349 891.416 337.324V348H887.812ZM907.277 348.408C905.509 348.408 903.979 348.023 902.687 347.252C901.418 346.481 900.432 345.382 899.729 343.954C899.049 342.526 898.709 340.86 898.709 338.956C898.709 337.052 899.049 335.397 899.729 333.992C900.432 332.564 901.418 331.465 902.687 330.694C903.957 329.901 905.453 329.504 907.175 329.504C908.807 329.504 910.247 329.889 911.493 330.66C912.74 331.408 913.703 332.496 914.383 333.924C915.086 335.352 915.437 337.075 915.437 339.092V340.01H902.449C902.54 341.778 903.005 343.104 903.843 343.988C904.705 344.872 905.861 345.314 907.311 345.314C908.377 345.314 909.261 345.065 909.963 344.566C910.666 344.067 911.153 343.399 911.425 342.56L915.165 342.798C914.689 344.475 913.749 345.835 912.343 346.878C910.961 347.898 909.272 348.408 907.277 348.408ZM902.449 337.29H911.629C911.516 335.681 911.051 334.491 910.235 333.72C909.442 332.949 908.422 332.564 907.175 332.564C905.883 332.564 904.818 332.972 903.979 333.788C903.163 334.581 902.653 335.749 902.449 337.29ZM926.059 348.408C924.359 348.408 922.92 348.147 921.741 347.626C920.585 347.105 919.69 346.391 919.055 345.484C918.42 344.555 918.058 343.489 917.967 342.288L921.673 342.118C921.854 343.115 922.285 343.909 922.965 344.498C923.645 345.087 924.676 345.382 926.059 345.382C927.192 345.382 928.088 345.201 928.745 344.838C929.402 344.475 929.731 343.897 929.731 343.104C929.731 342.673 929.618 342.311 929.391 342.016C929.187 341.699 928.779 341.438 928.167 341.234C927.555 341.007 926.648 340.792 925.447 340.588C923.656 340.248 922.251 339.851 921.231 339.398C920.211 338.945 919.486 338.367 919.055 337.664C918.624 336.961 918.409 336.111 918.409 335.114C918.409 333.459 919.021 332.111 920.245 331.068C921.492 330.025 923.282 329.504 925.617 329.504C927.181 329.504 928.496 329.776 929.561 330.32C930.626 330.841 931.454 331.555 932.043 332.462C932.655 333.346 933.04 334.343 933.199 335.454L929.493 335.658C929.38 335.023 929.153 334.479 928.813 334.026C928.496 333.55 928.065 333.187 927.521 332.938C926.977 332.666 926.331 332.53 925.583 332.53C924.427 332.53 923.566 332.757 922.999 333.21C922.432 333.663 922.149 334.253 922.149 334.978C922.149 335.522 922.274 335.964 922.523 336.304C922.795 336.644 923.226 336.927 923.815 337.154C924.404 337.358 925.186 337.539 926.161 337.698C928.042 338.015 929.516 338.412 930.581 338.888C931.646 339.341 932.394 339.908 932.825 340.588C933.256 341.268 933.471 342.095 933.471 343.07C933.471 344.203 933.154 345.167 932.519 345.96C931.884 346.753 931.012 347.365 929.901 347.796C928.79 348.204 927.51 348.408 926.059 348.408ZM944.088 348.408C942.388 348.408 940.949 348.147 939.77 347.626C938.614 347.105 937.719 346.391 937.084 345.484C936.45 344.555 936.087 343.489 935.996 342.288L939.702 342.118C939.884 343.115 940.314 343.909 940.994 344.498C941.674 345.087 942.706 345.382 944.088 345.382C945.222 345.382 946.117 345.201 946.774 344.838C947.432 344.475 947.76 343.897 947.76 343.104C947.76 342.673 947.647 342.311 947.42 342.016C947.216 341.699 946.808 341.438 946.196 341.234C945.584 341.007 944.678 340.792 943.476 340.588C941.686 340.248 940.28 339.851 939.26 339.398C938.24 338.945 937.515 338.367 937.084 337.664C936.654 336.961 936.438 336.111 936.438 335.114C936.438 333.459 937.05 332.111 938.274 331.068C939.521 330.025 941.312 329.504 943.646 329.504C945.21 329.504 946.525 329.776 947.59 330.32C948.656 330.841 949.483 331.555 950.072 332.462C950.684 333.346 951.07 334.343 951.228 335.454L947.522 335.658C947.409 335.023 947.182 334.479 946.842 334.026C946.525 333.55 946.094 333.187 945.55 332.938C945.006 332.666 944.36 332.53 943.612 332.53C942.456 332.53 941.595 332.757 941.028 333.21C940.462 333.663 940.178 334.253 940.178 334.978C940.178 335.522 940.303 335.964 940.552 336.304C940.824 336.644 941.255 336.927 941.844 337.154C942.434 337.358 943.216 337.539 944.19 337.698C946.072 338.015 947.545 338.412 948.61 338.888C949.676 339.341 950.424 339.908 950.854 340.588C951.285 341.268 951.5 342.095 951.5 343.07C951.5 344.203 951.183 345.167 950.548 345.96C949.914 346.753 949.041 347.365 947.93 347.796C946.82 348.204 945.539 348.408 944.088 348.408ZM955.148 348V329.912H958.752V348H955.148ZM955.08 327.294V323.69H958.82V327.294H955.08ZM970.961 348.408C969.238 348.408 967.731 348.023 966.439 347.252C965.147 346.481 964.15 345.382 963.447 343.954C962.744 342.526 962.393 340.86 962.393 338.956C962.393 337.029 962.744 335.363 963.447 333.958C964.15 332.553 965.147 331.465 966.439 330.694C967.731 329.901 969.238 329.504 970.961 329.504C972.684 329.504 974.191 329.901 975.483 330.694C976.775 331.465 977.772 332.553 978.475 333.958C979.178 335.363 979.529 337.029 979.529 338.956C979.529 340.86 979.178 342.526 978.475 343.954C977.772 345.382 976.775 346.481 975.483 347.252C974.191 348.023 972.684 348.408 970.961 348.408ZM970.961 345.28C972.502 345.28 973.692 344.725 974.531 343.614C975.37 342.481 975.789 340.928 975.789 338.956C975.789 336.984 975.37 335.443 974.531 334.332C973.692 333.199 972.502 332.632 970.961 332.632C969.442 332.632 968.252 333.199 967.391 334.332C966.552 335.443 966.133 336.984 966.133 338.956C966.133 340.928 966.552 342.481 967.391 343.614C968.252 344.725 969.442 345.28 970.961 345.28ZM983.171 348V329.912H986.469L986.605 334.74L986.163 334.502C986.367 333.323 986.752 332.371 987.319 331.646C987.886 330.921 988.577 330.388 989.393 330.048C990.209 329.685 991.093 329.504 992.045 329.504C993.405 329.504 994.527 329.81 995.411 330.422C996.318 331.011 996.998 331.827 997.451 332.87C997.927 333.89 998.165 335.057 998.165 336.372V348H994.561V337.46C994.561 336.395 994.448 335.499 994.221 334.774C993.994 334.049 993.62 333.493 993.099 333.108C992.578 332.723 991.898 332.53 991.059 332.53C989.79 332.53 988.758 332.949 987.965 333.788C987.172 334.627 986.775 335.851 986.775 337.46V348H983.171ZM468.996 384.408C467.228 384.408 465.698 384.023 464.406 383.252C463.137 382.481 462.151 381.382 461.448 379.954C460.768 378.526 460.428 376.86 460.428 374.956C460.428 373.052 460.768 371.397 461.448 369.992C462.151 368.564 463.137 367.465 464.406 366.694C465.675 365.901 467.171 365.504 468.894 365.504C470.526 365.504 471.965 365.889 473.212 366.66C474.459 367.408 475.422 368.496 476.102 369.924C476.805 371.352 477.156 373.075 477.156 375.092V376.01H464.168C464.259 377.778 464.723 379.104 465.562 379.988C466.423 380.872 467.579 381.314 469.03 381.314C470.095 381.314 470.979 381.065 471.682 380.566C472.385 380.067 472.872 379.399 473.144 378.56L476.884 378.798C476.408 380.475 475.467 381.835 474.062 382.878C472.679 383.898 470.991 384.408 468.996 384.408ZM464.168 373.29H473.348C473.235 371.681 472.77 370.491 471.954 369.72C471.161 368.949 470.141 368.564 468.894 368.564C467.602 368.564 466.537 368.972 465.698 369.788C464.882 370.581 464.372 371.749 464.168 373.29ZM485.037 384L478.441 365.912H482.283L487.213 380.328L492.143 365.912H496.019L489.389 384H485.037ZM503.505 384.408C501.623 384.408 500.116 383.977 498.983 383.116C497.872 382.255 497.317 381.042 497.317 379.478C497.317 377.914 497.781 376.701 498.711 375.84C499.663 374.956 501.125 374.321 503.097 373.936L509.319 372.746C509.319 371.341 508.99 370.298 508.333 369.618C507.675 368.915 506.701 368.564 505.409 368.564C504.253 368.564 503.346 368.825 502.689 369.346C502.031 369.845 501.578 370.593 501.329 371.59L497.623 371.352C497.963 369.539 498.801 368.111 500.139 367.068C501.499 366.025 503.255 365.504 505.409 365.504C507.857 365.504 509.715 366.161 510.985 367.476C512.277 368.768 512.923 370.593 512.923 372.95V379.988C512.923 380.419 512.991 380.725 513.127 380.906C513.285 381.065 513.535 381.144 513.875 381.144H514.521V384C514.407 384.023 514.226 384.045 513.977 384.068C513.727 384.091 513.467 384.102 513.195 384.102C512.424 384.102 511.755 383.977 511.189 383.728C510.645 383.479 510.237 383.071 509.965 382.504C509.693 381.915 509.557 381.133 509.557 380.158L509.931 380.328C509.749 381.121 509.353 381.824 508.741 382.436C508.151 383.048 507.392 383.535 506.463 383.898C505.556 384.238 504.57 384.408 503.505 384.408ZM504.083 381.552C505.171 381.552 506.1 381.348 506.871 380.94C507.641 380.509 508.242 379.92 508.673 379.172C509.103 378.424 509.319 377.574 509.319 376.622V375.466L504.015 376.486C502.927 376.69 502.156 377.019 501.703 377.472C501.272 377.903 501.057 378.458 501.057 379.138C501.057 379.909 501.317 380.509 501.839 380.94C502.383 381.348 503.131 381.552 504.083 381.552ZM521.275 384C520.097 384 519.145 383.694 518.419 383.082C517.694 382.47 517.331 381.495 517.331 380.158V359.86H520.935V379.818C520.935 380.226 521.037 380.532 521.241 380.736C521.468 380.94 521.785 381.042 522.193 381.042H523.621V384H521.275ZM532.578 384.408C530.765 384.408 529.314 383.807 528.226 382.606C527.161 381.382 526.628 379.693 526.628 377.54V365.912H530.232V376.622C530.232 378.254 530.515 379.455 531.082 380.226C531.649 380.997 532.51 381.382 533.666 381.382C534.981 381.382 536.001 380.963 536.726 380.124C537.474 379.263 537.848 378.061 537.848 376.52V365.912H541.452V384H538.086L538.018 379.274L538.528 379.478C538.211 381.065 537.542 382.289 536.522 383.15C535.502 383.989 534.187 384.408 532.578 384.408ZM551.616 384.408C549.735 384.408 548.227 383.977 547.094 383.116C545.983 382.255 545.428 381.042 545.428 379.478C545.428 377.914 545.893 376.701 546.822 375.84C547.774 374.956 549.236 374.321 551.208 373.936L557.43 372.746C557.43 371.341 557.101 370.298 556.444 369.618C555.787 368.915 554.812 368.564 553.52 368.564C552.364 368.564 551.457 368.825 550.8 369.346C550.143 369.845 549.689 370.593 549.44 371.59L545.734 371.352C546.074 369.539 546.913 368.111 548.25 367.068C549.61 366.025 551.367 365.504 553.52 365.504C555.968 365.504 557.827 366.161 559.096 367.476C560.388 368.768 561.034 370.593 561.034 372.95V379.988C561.034 380.419 561.102 380.725 561.238 380.906C561.397 381.065 561.646 381.144 561.986 381.144H562.632V384C562.519 384.023 562.337 384.045 562.088 384.068C561.839 384.091 561.578 384.102 561.306 384.102C560.535 384.102 559.867 383.977 559.3 383.728C558.756 383.479 558.348 383.071 558.076 382.504C557.804 381.915 557.668 381.133 557.668 380.158L558.042 380.328C557.861 381.121 557.464 381.824 556.852 382.436C556.263 383.048 555.503 383.535 554.574 383.898C553.667 384.238 552.681 384.408 551.616 384.408ZM552.194 381.552C553.282 381.552 554.211 381.348 554.982 380.94C555.753 380.509 556.353 379.92 556.784 379.172C557.215 378.424 557.43 377.574 557.43 376.622V375.466L552.126 376.486C551.038 376.69 550.267 377.019 549.814 377.472C549.383 377.903 549.168 378.458 549.168 379.138C549.168 379.909 549.429 380.509 549.95 380.94C550.494 381.348 551.242 381.552 552.194 381.552ZM571.681 384C569.959 384 568.689 383.603 567.873 382.81C567.057 382.017 566.649 380.781 566.649 379.104V361.662H570.253V378.832C570.253 379.671 570.435 380.249 570.797 380.566C571.16 380.883 571.715 381.042 572.463 381.042H575.047V384H571.681ZM563.895 368.87V365.912H575.047V368.87H563.895ZM578.491 384V365.912H582.095V384H578.491ZM578.423 363.294V359.69H582.163V363.294H578.423ZM594.305 384.408C592.582 384.408 591.075 384.023 589.783 383.252C588.491 382.481 587.493 381.382 586.791 379.954C586.088 378.526 585.737 376.86 585.737 374.956C585.737 373.029 586.088 371.363 586.791 369.958C587.493 368.553 588.491 367.465 589.783 366.694C591.075 365.901 592.582 365.504 594.305 365.504C596.027 365.504 597.535 365.901 598.827 366.694C600.119 367.465 601.116 368.553 601.819 369.958C602.521 371.363 602.873 373.029 602.873 374.956C602.873 376.86 602.521 378.526 601.819 379.954C601.116 381.382 600.119 382.481 598.827 383.252C597.535 384.023 596.027 384.408 594.305 384.408ZM594.305 381.28C595.846 381.28 597.036 380.725 597.875 379.614C598.713 378.481 599.133 376.928 599.133 374.956C599.133 372.984 598.713 371.443 597.875 370.332C597.036 369.199 595.846 368.632 594.305 368.632C592.786 368.632 591.596 369.199 590.735 370.332C589.896 371.443 589.477 372.984 589.477 374.956C589.477 376.928 589.896 378.481 590.735 379.614C591.596 380.725 592.786 381.28 594.305 381.28ZM606.515 384V365.912H609.813L609.949 370.74L609.507 370.502C609.711 369.323 610.096 368.371 610.663 367.646C611.23 366.921 611.921 366.388 612.737 366.048C613.553 365.685 614.437 365.504 615.389 365.504C616.749 365.504 617.871 365.81 618.755 366.422C619.662 367.011 620.342 367.827 620.795 368.87C621.271 369.89 621.509 371.057 621.509 372.372V384H617.905V373.46C617.905 372.395 617.792 371.499 617.565 370.774C617.338 370.049 616.964 369.493 616.443 369.108C615.922 368.723 615.242 368.53 614.403 368.53C613.134 368.53 612.102 368.949 611.309 369.788C610.516 370.627 610.119 371.851 610.119 373.46V384H606.515ZM636.706 384V364.756C636.706 363.26 637.126 362.07 637.964 361.186C638.803 360.302 640.118 359.86 641.908 359.86H645.104V362.818H642.384C641.682 362.818 641.16 363.011 640.82 363.396C640.48 363.759 640.31 364.28 640.31 364.96V384H636.706ZM634.19 369.074V366.15H644.832V369.074H634.19ZM654.9 384.408C653.178 384.408 651.67 384.023 650.378 383.252C649.086 382.481 648.089 381.382 647.386 379.954C646.684 378.526 646.332 376.86 646.332 374.956C646.332 373.029 646.684 371.363 647.386 369.958C648.089 368.553 649.086 367.465 650.378 366.694C651.67 365.901 653.178 365.504 654.9 365.504C656.623 365.504 658.13 365.901 659.422 366.694C660.714 367.465 661.712 368.553 662.414 369.958C663.117 371.363 663.468 373.029 663.468 374.956C663.468 376.86 663.117 378.526 662.414 379.954C661.712 381.382 660.714 382.481 659.422 383.252C658.13 384.023 656.623 384.408 654.9 384.408ZM654.9 381.28C656.442 381.28 657.632 380.725 658.47 379.614C659.309 378.481 659.728 376.928 659.728 374.956C659.728 372.984 659.309 371.443 658.47 370.332C657.632 369.199 656.442 368.632 654.9 368.632C653.382 368.632 652.192 369.199 651.33 370.332C650.492 371.443 650.072 372.984 650.072 374.956C650.072 376.928 650.492 378.481 651.33 379.614C652.192 380.725 653.382 381.28 654.9 381.28ZM667.111 384V365.912H670.409L670.545 370.706L670.239 370.604C670.488 368.972 670.987 367.782 671.735 367.034C672.505 366.286 673.537 365.912 674.829 365.912H676.563V369.142H674.829C673.922 369.142 673.163 369.289 672.551 369.584C671.939 369.879 671.474 370.332 671.157 370.944C670.862 371.556 670.715 372.349 670.715 373.324V384H667.111ZM694.029 384V363.226H686.617V359.86H705.113V363.226H697.701V384H694.029ZM707.609 389.1V386.142H709.819C710.431 386.142 710.884 386.051 711.179 385.87C711.474 385.689 711.7 385.383 711.859 384.952L712.437 383.456H711.315L704.787 365.912H708.595L713.559 380.124L718.285 365.912H722.127L714.919 386.108C714.556 387.151 714.012 387.91 713.287 388.386C712.584 388.862 711.598 389.1 710.329 389.1H707.609ZM724.585 389.1V365.912H727.985L728.087 369.788L727.679 369.584C728.132 368.247 728.88 367.238 729.923 366.558C730.966 365.855 732.167 365.504 733.527 365.504C735.295 365.504 736.746 365.946 737.879 366.83C739.035 367.691 739.885 368.836 740.429 370.264C740.996 371.692 741.279 373.256 741.279 374.956C741.279 376.656 740.996 378.22 740.429 379.648C739.885 381.076 739.035 382.232 737.879 383.116C736.746 383.977 735.295 384.408 733.527 384.408C732.62 384.408 731.77 384.249 730.977 383.932C730.184 383.615 729.504 383.173 728.937 382.606C728.393 382.017 728.008 381.325 727.781 380.532L728.189 380.124V389.1H724.585ZM732.881 381.28C734.332 381.28 735.465 380.725 736.281 379.614C737.12 378.503 737.539 376.951 737.539 374.956C737.539 372.961 737.12 371.409 736.281 370.298C735.465 369.187 734.332 368.632 732.881 368.632C731.929 368.632 731.102 368.87 730.399 369.346C729.696 369.799 729.152 370.502 728.767 371.454C728.382 372.406 728.189 373.573 728.189 374.956C728.189 376.339 728.37 377.506 728.733 378.458C729.118 379.41 729.662 380.124 730.365 380.6C731.09 381.053 731.929 381.28 732.881 381.28ZM752.385 384.408C750.617 384.408 749.087 384.023 747.795 383.252C746.525 382.481 745.539 381.382 744.837 379.954C744.157 378.526 743.817 376.86 743.817 374.956C743.817 373.052 744.157 371.397 744.837 369.992C745.539 368.564 746.525 367.465 747.795 366.694C749.064 365.901 750.56 365.504 752.283 365.504C753.915 365.504 755.354 365.889 756.601 366.66C757.847 367.408 758.811 368.496 759.491 369.924C760.193 371.352 760.545 373.075 760.545 375.092V376.01H747.557C747.647 377.778 748.112 379.104 748.951 379.988C749.812 380.872 750.968 381.314 752.419 381.314C753.484 381.314 754.368 381.065 755.071 380.566C755.773 380.067 756.261 379.399 756.533 378.56L760.273 378.798C759.797 380.475 758.856 381.835 757.451 382.878C756.068 383.898 754.379 384.408 752.385 384.408ZM747.557 373.29H756.737C756.623 371.681 756.159 370.491 755.343 369.72C754.549 368.949 753.529 368.564 752.283 368.564C750.991 368.564 749.925 368.972 749.087 369.788C748.271 370.581 747.761 371.749 747.557 373.29ZM773.607 384.544C771.68 384.544 770.003 384.193 768.575 383.49C767.169 382.787 766.059 381.813 765.243 380.566C764.427 379.319 763.951 377.869 763.815 376.214L767.589 375.976C767.747 377.109 768.076 378.073 768.575 378.866C769.073 379.637 769.742 380.226 770.581 380.634C771.442 381.019 772.473 381.212 773.675 381.212C774.717 381.212 775.601 381.087 776.327 380.838C777.075 380.566 777.641 380.169 778.027 379.648C778.412 379.127 778.605 378.492 778.605 377.744C778.605 377.064 778.435 376.463 778.095 375.942C777.777 375.398 777.154 374.911 776.225 374.48C775.318 374.027 773.981 373.585 772.213 373.154C770.286 372.678 768.745 372.157 767.589 371.59C766.433 371.023 765.594 370.321 765.073 369.482C764.574 368.621 764.325 367.567 764.325 366.32C764.325 364.937 764.653 363.725 765.311 362.682C765.991 361.617 766.954 360.789 768.201 360.2C769.447 359.611 770.943 359.316 772.689 359.316C774.525 359.316 776.089 359.656 777.381 360.336C778.695 361.016 779.727 361.945 780.475 363.124C781.245 364.303 781.721 365.651 781.903 367.17L778.129 367.374C778.015 366.445 777.732 365.629 777.279 364.926C776.825 364.201 776.213 363.645 775.443 363.26C774.672 362.852 773.731 362.648 772.621 362.648C771.215 362.648 770.105 362.977 769.289 363.634C768.495 364.269 768.099 365.119 768.099 366.184C768.099 366.864 768.257 367.442 768.575 367.918C768.915 368.371 769.504 368.768 770.343 369.108C771.204 369.448 772.417 369.811 773.981 370.196C776.066 370.672 777.721 371.261 778.945 371.964C780.191 372.644 781.075 373.449 781.597 374.378C782.118 375.307 782.379 376.361 782.379 377.54C782.379 378.968 782.005 380.215 781.257 381.28C780.531 382.323 779.511 383.127 778.197 383.694C776.882 384.261 775.352 384.544 773.607 384.544ZM794.619 384.408C792.896 384.408 791.389 384.023 790.097 383.252C788.805 382.481 787.808 381.382 787.105 379.954C786.402 378.526 786.051 376.86 786.051 374.956C786.051 373.052 786.402 371.397 787.105 369.992C787.808 368.564 788.805 367.465 790.097 366.694C791.389 365.901 792.896 365.504 794.619 365.504C796.092 365.504 797.396 365.765 798.529 366.286C799.685 366.785 800.614 367.521 801.317 368.496C802.042 369.471 802.507 370.661 802.711 372.066L798.937 372.27C798.756 371.091 798.28 370.196 797.509 369.584C796.738 368.949 795.775 368.632 794.619 368.632C793.1 368.632 791.91 369.199 791.049 370.332C790.21 371.443 789.791 372.984 789.791 374.956C789.791 376.928 790.21 378.481 791.049 379.614C791.91 380.725 793.1 381.28 794.619 381.28C795.775 381.28 796.738 380.963 797.509 380.328C798.28 379.671 798.756 378.685 798.937 377.37L802.711 377.574C802.507 378.957 802.042 380.158 801.317 381.178C800.614 382.198 799.685 382.991 798.529 383.558C797.396 384.125 796.092 384.408 794.619 384.408ZM805.999 384V365.912H809.297L809.433 370.706L809.127 370.604C809.377 368.972 809.875 367.782 810.623 367.034C811.394 366.286 812.425 365.912 813.717 365.912H815.451V369.142H813.717C812.811 369.142 812.051 369.289 811.439 369.584C810.827 369.879 810.363 370.332 810.045 370.944C809.751 371.556 809.603 372.349 809.603 373.324V384H805.999ZM818.417 384V365.912H822.021V384H818.417ZM818.349 363.294V359.69H822.089V363.294H818.349ZM827.415 389.1V365.912H830.815L830.917 369.788L830.509 369.584C830.963 368.247 831.711 367.238 832.753 366.558C833.796 365.855 834.997 365.504 836.357 365.504C838.125 365.504 839.576 365.946 840.709 366.83C841.865 367.691 842.715 368.836 843.259 370.264C843.826 371.692 844.109 373.256 844.109 374.956C844.109 376.656 843.826 378.22 843.259 379.648C842.715 381.076 841.865 382.232 840.709 383.116C839.576 383.977 838.125 384.408 836.357 384.408C835.451 384.408 834.601 384.249 833.807 383.932C833.014 383.615 832.334 383.173 831.767 382.606C831.223 382.017 830.838 381.325 830.611 380.532L831.019 380.124V389.1H827.415ZM835.711 381.28C837.162 381.28 838.295 380.725 839.111 379.614C839.95 378.503 840.369 376.951 840.369 374.956C840.369 372.961 839.95 371.409 839.111 370.298C838.295 369.187 837.162 368.632 835.711 368.632C834.759 368.632 833.932 368.87 833.229 369.346C832.527 369.799 831.983 370.502 831.597 371.454C831.212 372.406 831.019 373.573 831.019 374.956C831.019 376.339 831.201 377.506 831.563 378.458C831.949 379.41 832.493 380.124 833.195 380.6C833.921 381.053 834.759 381.28 835.711 381.28ZM854.041 384C852.318 384 851.049 383.603 850.233 382.81C849.417 382.017 849.009 380.781 849.009 379.104V361.662H852.613V378.832C852.613 379.671 852.794 380.249 853.157 380.566C853.519 380.883 854.075 381.042 854.823 381.042H857.407V384H854.041ZM846.255 368.87V365.912H857.407V368.87H846.255ZM861.288 376.792C861.197 375.999 861.107 375.058 861.016 373.97C860.925 372.859 860.835 371.737 860.744 370.604C860.676 369.448 860.642 368.417 860.642 367.51V359.86H864.314V367.51C864.314 368.417 864.28 369.448 864.212 370.604C864.144 371.737 864.053 372.859 863.94 373.97C863.849 375.058 863.77 375.999 863.702 376.792H861.288ZM860.166 384V379.716H864.586V384H860.166Z" fill="black"/>
<path d="M482.691 434.334C481.928 433.899 481.023 433.899 480.26 434.334L460.192 446.089C459.429 446.525 459 447.347 459 448.218V471.776C459 472.647 459.477 473.469 460.192 473.904L480.26 485.659C481.023 486.095 481.928 486.095 482.691 485.659L502.76 473.904C503.522 473.469 503.951 472.647 503.951 471.776V448.218C503.951 447.347 503.475 446.525 502.76 446.089L482.691 434.334Z" fill="url(#paint0_linear_2394_257)"/>
<path d="M502.807 446.09L482.643 434.335C482.452 434.238 482.214 434.141 482.023 434.093L459.429 473.324C459.619 473.566 459.858 473.759 460.096 473.905L480.26 485.66C480.832 485.998 481.499 486.095 482.119 485.901L503.331 446.525C503.188 446.332 502.997 446.186 502.807 446.09Z" fill="url(#paint1_linear_2394_257)"/>
<path d="M502.808 473.904C503.38 473.566 503.809 472.985 504 472.356L481.929 434.044C481.357 433.947 480.737 433.995 480.213 434.334L460.192 446.041L481.786 485.998C482.072 485.949 482.406 485.853 482.692 485.708L502.808 473.904Z" fill="url(#paint2_linear_2394_257)"/>
<path d="M557.923 451.098C557.824 450.99 557.722 450.885 557.617 450.784C557.513 450.683 557.415 450.57 557.311 450.47C557.207 450.369 557.109 450.256 557.005 450.155C556.901 450.055 556.802 449.942 556.698 449.841C556.594 449.741 556.496 449.627 556.392 449.527C556.288 449.426 556.19 449.313 556.086 449.213C555.982 449.112 555.884 448.999 555.78 448.898C558.817 451.962 560.557 456.129 560.624 460.499C560.624 470.913 550.324 479.384 537.66 479.384C530.569 479.384 524.225 476.726 520.006 472.559L520.312 472.873L520.618 473.188L520.924 473.502L521.231 473.816L521.537 474.13L521.843 474.445L522.149 474.759C526.362 479.101 532.847 481.898 540.11 481.898C552.773 481.898 563.073 473.426 563.073 463.045C563.073 458.608 561.211 454.404 557.923 451.098Z" fill="black"/>
<path d="M559.094 460.499C559.094 470.058 549.498 477.807 537.661 477.807C525.824 477.807 516.229 470.058 516.229 460.499C516.229 454.573 519.903 449.338 525.549 446.234C531.195 443.129 534.71 439.949 537.661 439.949C540.613 439.949 543.136 442.545 549.774 446.234C555.42 449.338 559.094 454.573 559.094 460.499Z" fill="#FBF0DF"/>
<path d="M559.093 460.5C559.091 459.272 558.926 458.051 558.603 456.867C556.932 477.794 532.058 478.8 522.278 472.54C526.675 476.037 532.099 477.895 537.661 477.807C549.479 477.807 559.093 470.046 559.093 460.5Z" fill="#F6DECE"/>
<path d="M529.413 445.084C532.15 443.399 535.787 440.238 539.363 440.232C538.814 440.05 538.24 439.954 537.661 439.949C536.179 439.949 534.599 440.735 532.609 441.916C531.917 442.331 531.201 442.79 530.441 443.267C529.015 444.172 527.38 445.197 525.542 446.221C519.713 449.458 516.229 454.793 516.229 460.499V461.247C519.939 447.792 526.681 446.768 529.413 445.084Z" fill="#FFFEFC"/>
<path fill-rule="evenodd" clip-rule="evenodd" d="M535.897 441.54C535.906 443.021 535.603 444.488 535.007 445.845C534.412 447.197 533.539 448.402 532.449 449.377C532.278 449.534 532.412 449.835 532.633 449.747C534.696 448.924 537.483 446.461 536.307 441.49C536.258 441.207 535.897 441.282 535.897 441.54ZM537.287 441.54C538.036 442.794 538.512 444.201 538.682 445.662C538.852 447.122 538.713 448.602 538.273 450.005C538.199 450.225 538.462 450.413 538.609 450.231C539.95 448.472 541.12 444.977 537.617 441.207C537.44 441.043 537.164 441.295 537.287 441.515V441.54ZM538.977 441.433C540.15 442.286 541.132 443.386 541.855 444.661C542.579 445.936 543.028 447.356 543.172 448.823C543.165 448.876 543.179 448.93 543.21 448.972C543.241 449.015 543.287 449.044 543.338 449.053C543.39 449.062 543.442 449.05 543.485 449.02C543.528 448.99 543.558 448.945 543.57 448.893C544.133 446.699 543.815 442.96 539.179 441.018C538.934 440.918 538.775 441.257 538.977 441.408V441.433ZM527.673 447.969C529.068 447.541 530.361 446.816 531.465 445.842C532.57 444.867 533.462 443.665 534.084 442.313C534.194 442.087 534.543 442.175 534.488 442.426C533.429 447.454 529.883 448.503 527.679 448.365C527.446 448.371 527.452 448.038 527.673 447.969Z" fill="#CCBEA7"/>
<path d="M537.661 479.385C524.997 479.385 514.697 470.913 514.697 460.5C514.697 454.216 518.482 448.352 524.82 444.839C526.657 443.834 528.23 442.822 529.633 441.936C530.404 441.446 531.133 440.987 531.837 440.56C533.987 439.252 535.824 438.379 537.661 438.379C539.498 438.379 541.102 439.133 543.111 440.352C543.723 440.71 544.335 441.1 544.991 441.527C546.516 442.495 548.236 443.589 550.502 444.839C556.84 448.352 560.624 454.209 560.624 460.5C560.624 470.913 550.324 479.385 537.661 479.385ZM537.661 439.95C536.179 439.95 534.599 440.736 532.609 441.917C531.917 442.332 531.2 442.791 530.441 443.268C529.014 444.173 527.379 445.197 525.542 446.222C519.713 449.458 516.228 454.794 516.228 460.5C516.228 470.046 525.842 477.814 537.661 477.814C549.479 477.814 559.093 470.046 559.093 460.5C559.093 454.794 555.609 449.458 549.773 446.234C547.459 444.978 545.652 443.796 544.189 442.866C543.521 442.445 542.909 442.055 542.351 441.71C540.496 440.578 539.143 439.95 537.661 439.95Z" fill="black"/>
<path d="M541.977 465.086C541.702 466.243 541.076 467.279 540.189 468.046C539.523 468.709 538.662 469.125 537.74 469.228C536.79 469.141 535.898 468.724 535.211 468.046C534.333 467.276 533.716 466.24 533.447 465.086C533.438 465.018 533.445 464.948 533.466 464.883C533.487 464.818 533.523 464.758 533.571 464.709C533.618 464.66 533.675 464.622 533.739 464.599C533.802 464.577 533.87 464.569 533.937 464.577H541.494C541.56 464.57 541.627 464.579 541.69 464.602C541.753 464.625 541.809 464.662 541.856 464.711C541.902 464.76 541.938 464.82 541.959 464.885C541.98 464.95 541.986 465.019 541.977 465.086Z" fill="#B71422"/>
<path d="M535.211 468.098C535.897 468.776 536.786 469.197 537.734 469.292C538.68 469.195 539.566 468.775 540.251 468.098C540.47 467.888 540.675 467.663 540.863 467.425C540.488 466.988 540.027 466.633 539.509 466.381C538.995 466.132 538.434 465.993 537.863 465.974C537.251 465.989 536.653 466.156 536.122 466.46C535.586 466.767 535.132 467.199 534.801 467.721C534.942 467.853 535.064 467.978 535.211 468.098Z" fill="#FF6164"/>
<path d="M535.31 467.601C535.611 467.2 536 466.873 536.446 466.645C536.889 466.419 537.379 466.299 537.876 466.294C538.793 466.322 539.666 466.7 540.325 467.356C540.465 467.199 540.6 467.038 540.729 466.872C539.95 466.111 538.921 465.678 537.845 465.659C537.269 465.665 536.702 465.8 536.186 466.056C535.666 466.315 535.21 466.686 534.851 467.142C534.995 467.304 535.148 467.457 535.31 467.601Z" fill="black"/>
<path d="M537.716 469.605C536.696 469.514 535.735 469.071 534.991 468.349C534.043 467.526 533.376 466.414 533.087 465.175C533.066 465.065 533.069 464.951 533.097 464.842C533.124 464.734 533.175 464.633 533.246 464.546C533.329 464.443 533.435 464.36 533.556 464.304C533.675 464.249 533.806 464.222 533.938 464.226H541.494C541.626 464.223 541.756 464.251 541.876 464.306C541.996 464.362 542.102 464.444 542.186 464.546C542.256 464.633 542.306 464.734 542.333 464.843C542.359 464.952 542.361 465.065 542.339 465.175C542.05 466.414 541.383 467.526 540.435 468.349C539.692 469.07 538.734 469.512 537.716 469.605ZM533.938 464.955C533.84 464.955 533.815 464.999 533.809 465.012C534.068 466.086 534.654 467.048 535.481 467.758C536.086 468.37 536.872 468.757 537.716 468.858C538.557 468.758 539.343 468.375 539.951 467.77C540.776 467.059 541.359 466.098 541.617 465.024C541.604 465.004 541.585 464.988 541.563 464.978C541.542 464.968 541.518 464.965 541.494 464.968L533.938 464.955Z" fill="black"/>
<path d="M546.981 465.477C548.959 465.477 550.563 464.509 550.563 463.315C550.563 462.121 548.959 461.153 546.981 461.153C545.002 461.153 543.398 462.121 543.398 463.315C543.398 464.509 545.002 465.477 546.981 465.477ZM528.445 465.477C530.423 465.477 532.027 464.509 532.027 463.315C532.027 462.121 530.423 461.153 528.445 461.153C526.466 461.153 524.862 462.121 524.862 463.315C524.862 464.509 526.466 465.477 528.445 465.477Z" fill="#FEBBD0"/>
<path fill-rule="evenodd" clip-rule="evenodd" d="M530.129 462.448C530.798 462.448 531.453 462.246 532.005 461.867C532.561 461.488 532.994 460.947 533.25 460.315C533.507 459.68 533.574 458.985 533.445 458.313C533.315 457.641 532.995 457.024 532.523 456.539C532.051 456.054 531.45 455.724 530.795 455.589C530.14 455.455 529.46 455.524 528.845 455.785C528.228 456.047 527.701 456.491 527.33 457.061C526.958 457.634 526.76 458.302 526.761 458.985C526.761 459.902 527.115 460.782 527.747 461.431C528.378 462.081 529.235 462.446 530.129 462.448ZM545.297 462.448C545.967 462.452 546.623 462.253 547.178 461.876C547.736 461.499 548.172 460.96 548.432 460.328C548.691 459.694 548.761 458.998 548.634 458.325C548.506 457.652 548.187 457.032 547.716 456.546C547.245 456.059 546.644 455.727 545.989 455.591C545.333 455.455 544.652 455.523 544.036 455.784C543.418 456.045 542.889 456.489 542.518 457.059C542.145 457.632 541.947 458.301 541.947 458.985C541.946 459.9 542.297 460.778 542.925 461.427C543.553 462.076 544.406 462.443 545.297 462.448Z" fill="black"/>
<path fill-rule="evenodd" clip-rule="evenodd" d="M529.088 459.205C529.339 459.206 529.586 459.131 529.794 458.989C530.004 458.845 530.167 458.643 530.263 458.407C530.36 458.168 530.386 457.907 530.338 457.654C530.29 457.403 530.17 457.171 529.992 456.987C529.817 456.805 529.591 456.68 529.343 456.629C529.097 456.578 528.841 456.604 528.61 456.702C528.377 456.801 528.178 456.968 528.04 457.181C527.9 457.396 527.826 457.648 527.826 457.904C527.826 458.248 527.959 458.578 528.195 458.822C528.311 458.942 528.45 459.038 528.603 459.104C528.756 459.169 528.921 459.204 529.088 459.205ZM544.256 459.205C544.507 459.206 544.752 459.131 544.962 458.989C545.172 458.845 545.336 458.643 545.431 458.407C545.528 458.168 545.554 457.907 545.506 457.654C545.458 457.403 545.338 457.171 545.16 456.987C544.985 456.805 544.759 456.68 544.511 456.629C544.265 456.578 544.01 456.604 543.778 456.702C543.545 456.801 543.346 456.968 543.208 457.181C543.068 457.396 542.994 457.648 542.994 457.904C542.994 458.246 543.125 458.574 543.359 458.818C543.593 459.061 543.911 459.2 544.244 459.205H544.256Z" fill="white"/>
<path d="M623.44 441.661L599.757 484.01C599.268 484.885 598.011 484.89 597.515 484.02L573.363 441.665C572.822 440.717 573.633 439.568 574.707 439.76L598.415 443.998C598.567 444.025 598.722 444.025 598.873 443.997L622.085 439.767C623.156 439.571 623.971 440.711 623.44 441.661Z" fill="url(#paint3_linear_2394_257)"/>
<path d="M609.709 434.203L592.183 437.637C591.895 437.693 591.682 437.938 591.664 438.231L590.586 456.439C590.561 456.868 590.955 457.2 591.373 457.104L596.253 455.978C596.709 455.873 597.122 456.275 597.028 456.734L595.578 463.833C595.481 464.31 595.929 464.719 596.396 464.577L599.41 463.662C599.877 463.52 600.326 463.929 600.227 464.408L597.923 475.558C597.779 476.256 598.707 476.636 599.094 476.038L599.352 475.639L613.633 447.138C613.872 446.661 613.46 446.117 612.936 446.218L607.913 447.187C607.441 447.278 607.04 446.839 607.173 446.377L610.451 435.013C610.584 434.55 610.181 434.11 609.709 434.203Z" fill="url(#paint4_linear_2394_257)"/>
<g clip-path="url(#clip0_2394_257)">
<rect x="199" y="204" width="184" height="180" rx="20" fill="#533566"/>
<path d="M359.097 201.62H222.702C209.267 201.62 198.348 212.508 198.348 225.903V361.899C198.348 375.294 209.267 386.182 222.702 386.182H359.097C372.531 386.182 383.451 375.294 383.451 361.899V225.903C383.451 212.508 372.598 201.62 359.097 201.62Z" fill="#533566"/>
<path d="M273.993 305.994L203.247 376.533C205.497 379.568 208.475 382.01 211.851 383.725L281.934 313.846L273.993 305.994Z" fill="#D3D3D3"/>
<path d="M293.878 223.307C293.878 221.686 292.559 220.371 290.933 220.371C289.307 220.371 287.988 221.686 287.988 223.307V245.611C287.988 247.232 289.307 248.547 290.933 248.547C292.559 248.547 293.878 247.232 293.878 245.611V223.307Z" fill="#FCD53F"/>
<path d="M264.527 237.913C264.527 239.735 263.045 241.212 261.218 241.212C259.39 241.212 257.909 239.735 257.909 237.913C257.909 236.09 259.39 234.613 261.218 234.613C263.045 234.613 264.527 236.09 264.527 237.913Z" fill="#FCD53F"/>
<path d="M317.47 356.686C317.47 358.509 315.989 359.985 314.162 359.985C312.334 359.985 310.853 358.509 310.853 356.686C310.853 354.864 312.334 353.387 314.162 353.387C315.989 353.387 317.47 354.864 317.47 356.686Z" fill="#FCD53F"/>
<path d="M228.128 274.204C229.956 274.204 231.437 272.727 231.437 270.905C231.437 269.083 229.956 267.605 228.128 267.605C226.301 267.605 224.819 269.083 224.819 270.905C224.819 272.727 226.301 274.204 228.128 274.204Z" fill="#FCD53F"/>
<path d="M357.178 323.694C357.178 325.516 355.697 326.993 353.87 326.993C352.042 326.993 350.561 325.516 350.561 323.694C350.561 321.872 352.042 320.395 353.87 320.395C355.697 320.395 357.178 321.872 357.178 323.694Z" fill="#FCD53F"/>
<path d="M228.128 326.993C229.956 326.993 231.437 325.516 231.437 323.694C231.437 321.872 229.956 320.395 228.128 320.395C226.301 320.395 224.819 321.872 224.819 323.694C224.819 325.516 226.301 326.993 228.128 326.993Z" fill="#FCD53F"/>
<path d="M357.378 270.905C357.378 272.727 355.896 274.204 354.069 274.204C352.241 274.204 350.76 272.727 350.76 270.905C350.76 269.083 352.241 267.605 354.069 267.605C355.896 267.605 357.378 269.083 357.378 270.905Z" fill="#FCD53F"/>
<path d="M267.707 359.985C269.535 359.985 271.016 358.509 271.016 356.686C271.016 354.864 269.535 353.387 267.707 353.387C265.88 353.387 264.398 354.864 264.398 356.686C264.398 358.509 265.88 359.985 267.707 359.985Z" fill="#FCD53F"/>
<path d="M324.089 237.913C324.089 239.735 322.608 241.212 320.78 241.212C318.952 241.212 317.471 239.735 317.471 237.913C317.471 236.09 318.952 234.613 320.78 234.613C322.608 234.613 324.089 236.09 324.089 237.913Z" fill="#FCD53F"/>
<path d="M345.565 242.941C346.716 244.089 346.716 245.95 345.565 247.098L329.748 262.869C328.597 264.016 326.73 264.016 325.579 262.869C324.428 261.72 324.428 259.86 325.579 258.711L341.396 242.941C342.547 241.793 344.414 241.793 345.565 242.941Z" fill="#FCD53F"/>
<path d="M290.933 346.339C292.559 346.339 293.878 347.654 293.878 349.275V371.578C293.878 373.2 292.559 374.515 290.933 374.515C289.307 374.515 287.988 373.2 287.988 371.578V349.275C287.988 347.654 289.307 346.339 290.933 346.339Z" fill="#FCD53F"/>
<path d="M240.406 242.941C239.255 241.793 237.389 241.793 236.237 242.941C235.086 244.089 235.086 245.95 236.237 247.098L252.054 262.869C253.206 264.016 255.072 264.016 256.223 262.869C257.374 261.72 257.374 259.86 256.223 258.711L240.406 242.941Z" fill="#FCD53F"/>
<path d="M325.579 332.022C326.73 330.874 328.597 330.874 329.748 332.022L345.565 347.792C346.716 348.94 346.716 350.801 345.565 351.949C344.414 353.097 342.547 353.097 341.396 351.949L325.579 336.179C324.428 335.031 324.428 333.17 325.579 332.022Z" fill="#FCD53F"/>
<path d="M216.546 294.477C214.919 294.477 213.601 295.792 213.601 297.413C213.601 299.035 214.919 300.349 216.546 300.349H238.914C240.541 300.349 241.859 299.035 241.859 297.413C241.859 295.792 240.541 294.477 238.914 294.477H216.546Z" fill="#FCD53F"/>
<path d="M339.935 297.413C339.935 295.792 341.253 294.477 342.88 294.477H365.248C366.875 294.477 368.193 295.792 368.193 297.413C368.193 299.035 366.875 300.349 365.248 300.349H342.88C341.253 300.349 339.935 299.035 339.935 297.413Z" fill="#FCD53F"/>
<path d="M337.192 275.964L309.065 281.969C307.477 282.365 306.087 280.913 306.418 279.33L312.441 251.286C312.97 248.844 309.727 247.459 308.337 249.57L292.719 273.655C291.859 275.04 289.807 275.04 288.947 273.655L273.329 249.57C271.939 247.525 268.696 248.844 269.226 251.286L275.248 279.33C275.645 280.913 274.189 282.299 272.601 281.969L244.475 275.964C242.026 275.436 240.636 278.67 242.754 280.055L266.909 295.628C268.299 296.486 268.299 298.531 266.909 299.389L242.754 314.962C240.702 316.347 242.026 319.581 244.475 319.053L272.601 313.048C274.189 312.652 275.579 314.104 275.248 315.688L269.226 343.731C268.696 346.173 271.939 347.559 273.329 345.447L288.947 321.362C289.807 319.977 291.859 319.977 292.719 321.362L308.337 345.447C309.727 347.493 312.97 346.173 312.441 343.731L306.418 315.688C306.021 314.104 307.477 312.718 309.065 313.048L337.192 319.053C339.64 319.581 341.03 316.347 338.912 314.962L314.757 299.389C313.367 298.531 313.367 296.486 314.757 295.628L338.912 280.055C340.964 278.67 339.64 275.436 337.192 275.964Z" fill="#FCD53F"/>
</g>
<defs>
<linearGradient id="paint0_linear_2394_257" x1="489.649" y1="443.089" x2="471.07" y2="480.437" gradientUnits="userSpaceOnUse">
<stop stop-color="#3F873F"/>
<stop offset="0.3296" stop-color="#3F8B3D"/>
<stop offset="0.6367" stop-color="#3E9638"/>
<stop offset="0.9341" stop-color="#3DA92E"/>
<stop offset="1" stop-color="#3DAE2B"/>
</linearGradient>
<linearGradient id="paint1_linear_2394_257" x1="478.425" y1="462.748" x2="529.865" y2="425.296" gradientUnits="userSpaceOnUse">
<stop offset="0.1376" stop-color="#3F873F"/>
<stop offset="0.4016" stop-color="#52A044"/>
<stop offset="0.7129" stop-color="#64B749"/>
<stop offset="0.9081" stop-color="#6ABF4B"/>
</linearGradient>
<linearGradient id="paint2_linear_2394_257" x1="458.265" y1="459.989" x2="504.702" y2="459.989" gradientUnits="userSpaceOnUse">
<stop offset="0.0919165" stop-color="#6ABF4B"/>
<stop offset="0.2871" stop-color="#64B749"/>
<stop offset="0.5984" stop-color="#52A044"/>
<stop offset="0.8624" stop-color="#3F873F"/>
</linearGradient>
<linearGradient id="paint3_linear_2394_257" x1="572.773" y1="438.247" x2="602.248" y2="478.277" gradientUnits="userSpaceOnUse">
<stop stop-color="#41D1FF"/>
<stop offset="1" stop-color="#BD34FE"/>
</linearGradient>
<linearGradient id="paint4_linear_2394_257" x1="597.055" y1="435.135" x2="602.387" y2="471.712" gradientUnits="userSpaceOnUse">
<stop stop-color="#FFEA83"/>
<stop offset="0.0833333" stop-color="#FFDD35"/>
<stop offset="1" stop-color="#FFA800"/>
</linearGradient>
<clipPath id="clip0_2394_257">
<rect x="199" y="204" width="184" height="180" rx="20" fill="white"/>
</clipPath>
</defs>
</svg>
