<svg width="1080" height="400" viewBox="0 0 1080 400" fill="none" xmlns="http://www.w3.org/2000/svg">
<rect width="1080" height="400" fill="white"/>
<rect x="431.962" y="172" width="56" height="56" rx="5.28302" fill="#D9D9D9" fill-opacity="0.4"/>
<rect x="440.415" y="179.396" width="39.0943" height="6.33962" rx="2.11321" fill="#D9D9D9"/>
<rect x="440.415" y="191.02" width="31.6981" height="6.33962" rx="2.11321" fill="#D9D9D9"/>
<rect x="440.415" y="202.642" width="39.0943" height="6.33962" rx="2.11321" fill="#D9D9D9"/>
<rect x="440.415" y="214.265" width="39.0943" height="6.33962" rx="2.11321" fill="#D9D9D9"/>
<path d="M527.962 198.5C527.133 198.5 526.462 199.172 526.462 200C526.462 200.828 527.133 201.5 527.962 201.5V198.5ZM552.023 201.061C552.608 200.475 552.608 199.525 552.023 198.939L542.477 189.393C541.891 188.808 540.941 188.808 540.355 189.393C539.77 189.979 539.77 190.929 540.355 191.515L548.841 200L540.355 208.485C539.77 209.071 539.77 210.021 540.355 210.607C540.941 211.192 541.891 211.192 542.477 210.607L552.023 201.061ZM527.962 200V201.5H550.962V200V198.5H527.962V200Z" fill="#FEA659"/>
<g clip-path="url(#clip0_2394_218)">
<rect x="590.962" y="172" width="57.0769" height="56" rx="10.7692" fill="#533566"/>
<path d="M640.624 171.26H598.314C594.147 171.26 590.76 174.647 590.76 178.814V221.124C590.76 225.292 594.147 228.679 598.314 228.679H640.624C644.792 228.679 648.179 225.292 648.179 221.124V178.814C648.179 174.647 644.812 171.26 640.624 171.26Z" fill="#533566"/>
<path d="M614.225 203.731L592.279 225.677C592.977 226.621 593.901 227.381 594.948 227.914L616.688 206.174L614.225 203.731Z" fill="#D3D3D3"/>
<path d="M620.393 178.007C620.393 177.503 619.984 177.094 619.48 177.094C618.975 177.094 618.566 177.503 618.566 178.007V184.946C618.566 185.451 618.975 185.86 619.48 185.86C619.984 185.86 620.393 185.451 620.393 184.946V178.007Z" fill="#FCD53F"/>
<path d="M611.288 182.551C611.288 183.118 610.829 183.577 610.262 183.577C609.695 183.577 609.235 183.118 609.235 182.551C609.235 181.984 609.695 181.524 610.262 181.524C610.829 181.524 611.288 181.984 611.288 182.551Z" fill="#FCD53F"/>
<path d="M627.711 219.502C627.711 220.069 627.251 220.528 626.685 220.528C626.118 220.528 625.658 220.069 625.658 219.502C625.658 218.935 626.118 218.476 626.685 218.476C627.251 218.476 627.711 218.935 627.711 219.502Z" fill="#FCD53F"/>
<path d="M599.997 193.841C600.564 193.841 601.024 193.382 601.024 192.815C601.024 192.248 600.564 191.788 599.997 191.788C599.43 191.788 598.971 192.248 598.971 192.815C598.971 193.382 599.43 193.841 599.997 193.841Z" fill="#FCD53F"/>
<path d="M640.028 209.238C640.028 209.805 639.569 210.265 639.002 210.265C638.435 210.265 637.976 209.805 637.976 209.238C637.976 208.672 638.435 208.212 639.002 208.212C639.569 208.212 640.028 208.672 640.028 209.238Z" fill="#FCD53F"/>
<path d="M599.997 210.265C600.564 210.265 601.024 209.805 601.024 209.238C601.024 208.672 600.564 208.212 599.997 208.212C599.43 208.212 598.971 208.672 598.971 209.238C598.971 209.805 599.43 210.265 599.997 210.265Z" fill="#FCD53F"/>
<path d="M640.091 192.815C640.091 193.382 639.631 193.841 639.065 193.841C638.498 193.841 638.038 193.382 638.038 192.815C638.038 192.248 638.498 191.788 639.065 191.788C639.631 191.788 640.091 192.248 640.091 192.815Z" fill="#FCD53F"/>
<path d="M612.274 220.528C612.841 220.528 613.301 220.069 613.301 219.502C613.301 218.935 612.841 218.476 612.274 218.476C611.707 218.476 611.248 218.935 611.248 219.502C611.248 220.069 611.707 220.528 612.274 220.528Z" fill="#FCD53F"/>
<path d="M629.765 182.551C629.765 183.118 629.305 183.577 628.738 183.577C628.172 183.577 627.712 183.118 627.712 182.551C627.712 181.984 628.172 181.524 628.738 181.524C629.305 181.524 629.765 181.984 629.765 182.551Z" fill="#FCD53F"/>
<path d="M636.426 184.115C636.783 184.473 636.783 185.052 636.426 185.409L631.52 190.315C631.163 190.672 630.584 190.672 630.227 190.315C629.87 189.958 629.87 189.379 630.227 189.022L635.133 184.115C635.49 183.758 636.069 183.758 636.426 184.115Z" fill="#FCD53F"/>
<path d="M619.48 216.283C619.984 216.283 620.393 216.692 620.393 217.197V224.135C620.393 224.64 619.984 225.049 619.48 225.049C618.975 225.049 618.566 224.64 618.566 224.135V217.197C618.566 216.692 618.975 216.283 619.48 216.283Z" fill="#FCD53F"/>
<path d="M603.806 184.115C603.449 183.758 602.87 183.758 602.513 184.115C602.156 184.473 602.156 185.052 602.513 185.409L607.419 190.315C607.777 190.672 608.355 190.672 608.713 190.315C609.07 189.958 609.07 189.379 608.713 189.022L603.806 184.115Z" fill="#FCD53F"/>
<path d="M630.227 211.829C630.584 211.472 631.163 211.472 631.52 211.829L636.426 216.736C636.783 217.093 636.783 217.672 636.426 218.029C636.069 218.386 635.49 218.386 635.133 218.029L630.227 213.123C629.87 212.765 629.87 212.186 630.227 211.829Z" fill="#FCD53F"/>
<path d="M596.405 200.148C595.9 200.148 595.491 200.558 595.491 201.062C595.491 201.567 595.9 201.976 596.405 201.976H603.344C603.848 201.976 604.257 201.567 604.257 201.062C604.257 200.558 603.848 200.148 603.344 200.148H596.405Z" fill="#FCD53F"/>
<path d="M634.68 201.062C634.68 200.558 635.089 200.148 635.593 200.148H642.532C643.037 200.148 643.446 200.558 643.446 201.062C643.446 201.567 643.037 201.976 642.532 201.976H635.593C635.089 201.976 634.68 201.567 634.68 201.062Z" fill="#FCD53F"/>
<path d="M633.829 194.389L625.104 196.257C624.612 196.38 624.181 195.928 624.283 195.436L626.151 186.711C626.316 185.951 625.31 185.52 624.879 186.177L620.034 193.67C619.767 194.101 619.131 194.101 618.864 193.67L614.019 186.177C613.588 185.541 612.582 185.951 612.746 186.711L614.614 195.436C614.737 195.928 614.286 196.359 613.793 196.257L605.068 194.389C604.309 194.224 603.878 195.23 604.535 195.661L612.028 200.506C612.459 200.773 612.459 201.409 612.028 201.676L604.535 206.521C603.898 206.952 604.309 207.958 605.068 207.794L613.793 205.926C614.286 205.803 614.717 206.254 614.614 206.747L612.746 215.472C612.582 216.231 613.588 216.662 614.019 216.005L618.864 208.512C619.131 208.081 619.767 208.081 620.034 208.512L624.879 216.005C625.31 216.642 626.316 216.231 626.151 215.472L624.283 206.747C624.16 206.254 624.612 205.823 625.104 205.926L633.829 207.794C634.589 207.958 635.02 206.952 634.363 206.521L626.87 201.676C626.439 201.409 626.439 200.773 626.87 200.506L634.363 195.661C634.999 195.23 634.589 194.224 633.829 194.389Z" fill="#FCD53F"/>
</g>
<defs>
<clipPath id="clip0_2394_218">
<rect x="590.962" y="172" width="57.0769" height="56" rx="10.7692" fill="white"/>
</clipPath>
</defs>
</svg>
